#!OML:ASF Y:\EmotionMaleHayes\Project 1\Capture day 1\Session 1\Male1.ASF
:FULLY-SPECIFIED
:DEGREES
735
root 2.04807 17.645 -14.6368 181.917 139.918 176.649
lowerback 5.55877 2.66626 -7.68283
upperback 7.20474 3.58076 -2.62632
thorax 4.12678 1.5568 1.48014
lowerneck -22.155 1.96326 2.93204
upperneck 27.4888 1.1197 2.45348
head 12.8954 1.20345 0.660863
rclavicle -6.75868e-014 2.06736e-014
rhumerus 38.2247 18.0012 -31.1546
rradius 38.6783
rwrist -3.78871
rhand -5.52137 -33.4862
rfingers 7.12502
rthumb 20.2924 -62.4461
lclavicle -6.75868e-014 2.06736e-014
lhumerus 44.9501 -11.8602 24.2125
lradius 38.9516
lwrist 4.8437
lhand -13.6993 -23.2557
lfingers 7.12502
lthumb 12.419 6.35541
rfemur 8.6522 4.45617 8.33696
rtibia 26.5618
rfoot 8.97934 -9.93946
rtoes 34.5419
lfemur 1.52196 -2.51507 -12.4241
ltibia 10.4718
lfoot -11.6585 16.0317
ltoes -25.7569
736
root 2.10081 17.6509 -14.6118 182.238 140.268 176.986
lowerback 5.54609 2.62962 -8.09398
upperback 7.18094 3.52343 -2.69334
thorax 4.10122 1.512 1.63807
lowerneck -22.1443 2.02923 2.99533
upperneck 27.5245 1.17524 2.50052
head 12.9088 1.24122 0.678475
rclavicle -2.06736e-014 7.95139e-015
rhumerus 38.1732 17.9861 -30.9984
rradius 38.8527
rwrist -3.95789
rhand -5.5501 -33.1966
rfingers 7.12502
rthumb 20.2648 -62.1595
lclavicle -2.06736e-014 7.95139e-015
lhumerus 45.2345 -11.8694 23.6907
lradius 38.906
lwrist 5.28918
lhand -13.5517 -23.5884
lfingers 7.12502
lthumb 12.5614 6.01402
rfemur 8.03213 4.37511 7.93563
rtibia 27.2624
rfoot 8.83874 -11.113
rtoes 36.461
lfemur 1.72429 -2.30493 -12.7753
ltibia 10.4575
lfoot -11.555 15.8838
ltoes -26.7873
737
root 2.1422 17.6568 -14.588 182.2 140.586 176.762
lowerback 5.69114 2.62458 -8.13064
upperback 7.11571 3.48893 -2.61721
thorax 3.94665 1.49649 1.72992
lowerneck -22.1231 2.01495 2.94269
upperneck 27.5353 1.1473 2.58593
head 12.9079 1.2351 0.715363
rclavicle 1.82882e-014 1.59028e-015
rhumerus 38.09 17.9066 -30.8178
rradius 38.898
rwrist -4.09432
rhand -5.60299 -33.1364
rfingers 7.12502
rthumb 20.214 -62.1046
lclavicle 1.82882e-014 1.59028e-015
lhumerus 45.5396 -12.1466 22.955
lradius 38.9022
lwrist 6.07814
lhand -13.6568 -23.6825
lfingers 7.12502
lthumb 12.46 5.92605
rfemur 7.33186 4.31858 8.19229
rtibia 28.015
rfoot 7.86268 -10.8442
rtoes 34.3423
lfemur 1.8273 -2.41831 -12.504
ltibia 10.4892
lfoot -11.928 15.6936
ltoes -24.7232
738
root 2.19272 17.6615 -14.564 182.305 140.839 176.778
lowerback 5.68447 2.56836 -8.18736
upperback 7.16517 3.41765 -2.62023
thorax 4.00762 1.45531 1.7617
lowerneck -22.3076 1.99449 2.84391
upperneck 27.5207 1.1151 2.6712
head 12.9382 1.22159 0.761406
rclavicle -7.07673e-014 1.59028e-014
rhumerus 38.2548 17.6168 -30.7894
rradius 38.6685
rwrist -4.04835
rhand -5.62688 -33.341
rfingers 7.12502
rthumb 20.191 -62.3116
lclavicle -7.07673e-014 1.59028e-014
lhumerus 45.8533 -11.9871 22.9633
lradius 38.7262
lwrist 5.96324
lhand -13.6746 -23.6345
lfingers 7.12502
lthumb 12.4428 5.97516
rfemur 6.71227 3.99695 8.0846
rtibia 28.5062
rfoot 7.05146 -10.3733
rtoes 31.9012
lfemur 1.96127 -2.39187 -12.563
ltibia 10.5787
lfoot -12.1456 15.4516
ltoes -23.6991
739
root 2.24974 17.6641 -14.5348 182.469 141.217 177.01
lowerback 5.55914 2.54386 -8.32492
upperback 7.31009 3.41422 -2.73839
thorax 4.23608 1.44058 1.7233
lowerneck -22.6246 1.98734 2.90338
upperneck 27.5432 1.0588 2.68061
head 13.0133 1.20472 0.749642
rclavicle 1.11319e-013 -3.18055e-015
rhumerus 38.4062 17.2991 -30.714
rradius 38.5699
rwrist -4.09195
rhand -5.57968 -33.1926
rfingers 7.12502
rthumb 20.2364 -62.1585
lclavicle 1.11319e-013 -3.18055e-015
lhumerus 46.0068 -11.6809 23.2115
lradius 38.7021
lwrist 5.46871
lhand -13.7215 -23.7607
lfingers 7.12502
lthumb 12.3976 5.85169
rfemur 6.25368 3.81843 7.72319
rtibia 28.7053
rfoot 6.31387 -9.92849
rtoes 32.1461
lfemur 2.32225 -2.07522 -12.8751
ltibia 10.5106
lfoot -12.6415 15.3349
ltoes -21.9612
740
root 2.30761 17.6664 -14.5018 182.306 141.775 176.884
lowerback 5.47379 2.67892 -8.1744
upperback 7.51343 3.63182 -2.88433
thorax 4.49915 1.54887 1.49092
lowerneck -22.9719 1.98149 3.309
upperneck 27.5706 0.89112 2.62521
head 13.1019 1.16826 0.635329
rclavicle 1.98785e-014 -1.74931e-014
rhumerus 38.2011 16.7887 -30.7749
rradius 38.5925
rwrist -4.10485
rhand -5.49764 -33.1782
rfingers 7.12502
rthumb 20.3152 -62.1357
lclavicle 1.98785e-014 -1.74931e-014
lhumerus 46.8707 -11.6106 22.6357
lradius 38.5772
lwrist 5.88595
lhand -13.9699 -23.4028
lfingers 7.12502
lthumb 12.1581 6.22391
rfemur 5.81502 3.85261 7.75351
rtibia 28.9558
rfoot 5.92879 -9.64251
rtoes 31.7083
lfemur 2.86781 -2.03611 -12.8297
ltibia 10.2928
lfoot -12.0877 15.6756
ltoes -25.1963
741
root 2.34716 17.6673 -14.4738 182.39 141.967 176.859
lowerback 5.47378 2.50523 -8.43027
upperback 7.44982 3.38058 -2.71598
thorax 4.43187 1.40779 1.81192
lowerneck -22.5857 2.13676 3.0572
upperneck 27.4793 1.23358 2.62057
head 12.9814 1.28637 0.729256
rclavicle 1.39149e-013 -4.13472e-014
rhumerus 38.5853 17.0543 -30.3217
rradius 38.6368
rwrist -4.12032
rhand -5.36281 -33.383
rfingers 7.12502
rthumb 20.4448 -62.3266
lclavicle 1.39149e-013 -4.13472e-014
lhumerus 46.6365 -11.4439 22.9296
lradius 38.3892
lwrist 5.91644
lhand -14.0269 -23.2196
lfingers 7.12502
lthumb 12.1032 6.41035
rfemur 5.25515 3.46903 7.76248
rtibia 29.1777
rfoot 5.67267 -9.70473
rtoes 30.0708
lfemur 2.85966 -1.93584 -12.7278
ltibia 10.4526
lfoot -12.491 15.2574
ltoes -23.2298
742
root 2.3931 17.6705 -14.4454 182.645 142.194 177.117
lowerback 5.50103 2.3706 -8.71779
upperback 7.39343 3.18765 -2.7489
thorax 4.36659 1.30171 1.93862
lowerneck -22.3018 2.23681 2.94238
upperneck 27.3021 1.39893 2.73794
head 12.8486 1.35862 0.815363
rclavicle -1.82882e-014 -5.08889e-014
rhumerus 38.751 17.1501 -30.1568
rradius 38.733
rwrist -4.07701
rhand -5.33179 -33.3271
rfingers 7.12502
rthumb 20.4746 -62.2675
lclavicle -1.82882e-014 -5.08889e-014
lhumerus 46.4489 -11.2644 23.2788
lradius 38.342
lwrist 5.76051
lhand -13.8183 -23.4199
lfingers 7.12502
lthumb 12.3043 6.19805
rfemur 4.75464 2.92266 7.38663
rtibia 29.1126
rfoot 5.52841 -9.63492
rtoes 29.6407
lfemur 3.05495 -2.48896 -13.0985
ltibia 10.1731
lfoot -12.282 15.4224
ltoes -24.648
743
root 2.43236 17.6715 -14.4142 182.546 142.602 176.978
lowerback 5.65466 2.31811 -8.71326
upperback 7.36143 3.09468 -2.73407
thorax 4.25403 1.25943 1.94728
lowerneck -22.138 2.2529 2.79457
upperneck 27.2238 1.43934 2.88378
head 12.7803 1.37883 0.899307
rclavicle 3.33958e-014 -1.74931e-014
rhumerus 38.7725 17.2308 -29.9846
rradius 38.9775
rwrist -4.19821
rhand -5.38073 -33.1914
rfingers 7.12502
rthumb 20.4276 -62.1368
lclavicle 3.33958e-014 -1.74931e-014
lhumerus 46.3615 -11.1178 23.6023
lradius 38.3305
lwrist 5.77852
lhand -13.7956 -23.3411
lfingers 7.12502
lthumb 12.3262 6.27556
rfemur 4.28167 2.66216 7.46952
rtibia 28.9437
rfoot 5.17733 -9.52223
rtoes 29.9189
lfemur 3.46896 -2.85047 -13.0488
ltibia 9.81774
lfoot -12.1281 15.796
ltoes -24.4902
744
root 2.4778 17.6716 -14.3799 182.653 143.079 177.104
lowerback 5.71544 2.34837 -8.925
upperback 7.35043 3.12238 -2.79009
thorax 4.20245 1.2667 2.00145
lowerneck -22.2424 2.2321 2.93557
upperneck 27.3462 1.38318 2.7742
head 12.8543 1.35553 0.827471
rclavicle -1.43125e-014 -7.95139e-015
rhumerus 38.7253 17.165 -29.794
rradius 39.1414
rwrist -4.38733
rhand -5.42409 -33.2146
rfingers 7.12502
rthumb 20.3859 -62.1646
lclavicle -1.43125e-014 -7.95139e-015
lhumerus 46.5491 -11.0569 23.7011
lradius 38.2782
lwrist 5.94361
lhand -13.9343 -23.016
lfingers 7.12502
lthumb 12.1925 6.6087
rfemur 3.75692 2.33369 7.24536
rtibia 28.8568
rfoot 4.42601 -9.3579
rtoes 28.9108
lfemur 3.76032 -2.18772 -13.1918
ltibia 9.9325
lfoot -11.8391 15.899
ltoes -26.671
745
root 2.53088 17.6749 -14.3476 183.19 143.463 177.81
lowerback 5.64047 2.38471 -9.43213
upperback 7.36441 3.18014 -3.05227
thorax 4.25473 1.2778 2.00757
lowerneck -22.4167 2.22548 3.31659
upperneck 27.4659 1.27569 2.5936
head 12.9458 1.32588 0.679637
rclavicle 9.85972e-014 3.02153e-014
rhumerus 38.6604 16.8576 -29.8607
rradius 39.0661
rwrist -4.44885
rhand -5.49053 -33.2685
rfingers 7.12502
rthumb 20.3221 -62.2253
lclavicle 9.85972e-014 3.02153e-014
lhumerus 46.9026 -11.0101 23.6406
lradius 38.3174
lwrist 6.0541
lhand -13.9322 -22.8102
lfingers 7.12502
lthumb 12.1944 6.81433
rfemur 3.1413 1.72086 6.38712
rtibia 28.8173
rfoot 3.45174 -9.05863
rtoes 27.487
lfemur 3.79449 -0.691008 -13.9276
ltibia 10.6728
lfoot -10.4646 16.1729
ltoes -34.9947
746
root 2.57513 17.6785 -14.3142 183.311 143.789 178.004
lowerback 5.65385 2.35512 -9.61394
upperback 7.39874 3.14139 -3.13351
thorax 4.28797 1.25042 2.02347
lowerneck -22.5504 2.28715 3.47376
upperneck 27.5934 1.31833 2.51854
head 13.0283 1.35276 0.635642
rclavicle -4.53229e-014 2.70347e-014
rhumerus 38.7684 16.6271 -29.9264
rradius 38.9182
rwrist -4.33351
rhand -5.54506 -33.2332
rfingers 7.12502
rthumb 20.2696 -62.1955
lclavicle -4.53229e-014 2.70347e-014
lhumerus 47.0062 -10.8846 23.7597
lradius 38.3807
lwrist 6.11943
lhand -13.9771 -22.762
lfingers 7.12502
lthumb 12.1512 6.8651
rfemur 2.59292 1.28827 6.19749
rtibia 28.7304
rfoot 2.26844 -8.93339
rtoes 26.6824
lfemur 4.12257 -1.54633 -14.2537
ltibia 10.0266
lfoot -10.8887 16.387
ltoes -28.8999
747
root 2.61422 17.6811 -14.2786 183.203 144.158 177.866
lowerback 5.74239 2.29293 -9.69857
upperback 7.39204 3.03866 -3.03262
thorax 4.23366 1.19357 2.17455
lowerneck -22.5209 2.37524 3.36827
upperneck 27.6682 1.49097 2.49801
head 13.0515 1.41422 0.676406
rclavicle -1.35174e-014 -1.43125e-014
rhumerus 39.0438 16.6631 -29.7048
rradius 38.8609
rwrist -4.34575
rhand -5.55875 -33.1801
rfingers 7.12502
rthumb 20.2565 -62.1438
lclavicle -1.35174e-014 -1.43125e-014
lhumerus 46.8903 -10.8082 23.9275
lradius 38.4058
lwrist 6.34644
lhand -14.0689 -22.89
lfingers 7.12502
lthumb 12.0627 6.74229
rfemur 2.02021 0.841876 6.40126
rtibia 28.7737
rfoot 1.03001 -8.88686
rtoes 25.4731
lfemur 4.45494 -1.97192 -14.2063
ltibia 9.74589
lfoot -10.8455 16.6466
ltoes -28.7162
748
root 2.65468 17.6828 -14.2436 183.027 144.627 177.564
lowerback 5.80204 2.28786 -9.5603
upperback 7.4207 3.02613 -2.9755
thorax 4.23254 1.1907 2.15683
lowerneck -22.4021 2.43357 3.36849
upperneck 27.538 1.58626 2.47986
head 12.974 1.45 0.681751
rclavicle 2.38542e-015 -7.95139e-015
rhumerus 39.2241 16.5692 -29.5572
rradius 38.8673
rwrist -4.50232
rhand -5.62606 -33.1385
rfingers 7.12502
rthumb 20.1918 -62.1091
lclavicle 2.38542e-015 -7.95139e-015
lhumerus 46.9289 -10.6601 24.019
lradius 38.4582
lwrist 6.67287
lhand -13.9186 -23.25
lfingers 7.12502
lthumb 12.2076 6.37374
rfemur 1.35008 0.43602 6.74323
rtibia 28.8382
rfoot -0.545855 -8.92074
rtoes 26.2092
lfemur 4.80697 -2.10611 -14.0232
ltibia 9.70464
lfoot -11.1281 16.8856
ltoes -27.891
749
root 2.69978 17.683 -14.2072 182.81 144.986 177.269
lowerback 5.85911 2.30555 -9.20252
upperback 7.57821 3.07143 -3.08514
thorax 4.38143 1.22545 1.84514
lowerneck -22.5107 2.47626 3.66605
upperneck 27.2763 1.52383 2.49359
head 12.8945 1.45118 0.623331
rclavicle 1.22451e-013 -7.31528e-014
rhumerus 39.069 16.1038 -29.7408
rradius 39.0665
rwrist -4.57402
rhand -5.81403 -33.2016
rfingers 7.12502
rthumb 20.0111 -62.1912
lclavicle 1.22451e-013 -7.31528e-014
lhumerus 47.2991 -10.3269 24.1693
lradius 38.5034
lwrist 6.68951
lhand -13.7447 -23.5407
lfingers 7.12502
lthumb 12.3752 6.07302
rfemur 0.865658 -0.0858359 7.02968
rtibia 28.5768
rfoot -2.07776 -9.00341
rtoes 27.0483
lfemur 5.23299 -2.11989 -13.8756
ltibia 9.6253
lfoot -11.461 17.1134
ltoes -25.0777
